<?xml version="1.0" standalone="no"?><svg xmlns="http://www.w3.org/2000/svg" viewBox="0 0 1440 320"><path fill="#ffffff" fill-opacity="1" d="M0,96L26.7,96C53.3,96,107,96,160,80C213.3,64,267,32,320,53.3C373.3,75,427,149,480,192C533.3,235,587,245,640,256C693.3,267,747,277,800,256C853.3,235,907,181,960,160C1013.3,139,1067,149,1120,128C1173.3,107,1227,53,1280,58.7C1333.3,64,1387,128,1413,160L1440,192L1440,320L1413.3,320C1386.7,320,1333,320,1280,320C1226.7,320,1173,320,1120,320C1066.7,320,1013,320,960,320C906.7,320,853,320,800,320C746.7,320,693,320,640,320C586.7,320,533,320,480,320C426.7,320,373,320,320,320C266.7,320,213,320,160,320C106.7,320,53,320,27,320L0,320Z"></path></svg>